<svg xmlns="http://www.w3.org/2000/svg" width="32.103" height="34.803" viewBox="0 0 32.103 34.803">
  <path id="Path_334" data-name="Path 334" d="M0,32.831V34.8H32.1V33c-.01-.029-.029-.068-.039-.1s-.019-.068-.029-.1l-.223-1.156a10.368,10.368,0,0,0-.3-1.136,7.24,7.24,0,0,0-3.952-5c-2.865-1.612-4.127-1.5-5.991-3.088A7.726,7.726,0,0,1,20.1,20.955a23.589,23.589,0,0,1,2.321-2.544c.981-.185,1.661,1.01,2.292-2.845a21.96,21.96,0,0,0,.107-3.68.5.5,0,0,1,.107-.019.349.349,0,0,1,.107-.019l.738-.155a13.185,13.185,0,0,0-.117-4.768A9.393,9.393,0,0,0,24,3.573a8.739,8.739,0,0,0-2.777-2.263A8.723,8.723,0,0,0,19.411.544L17.43,0H15.1c-.757.408-1.816.087-3.991,1.185A9.486,9.486,0,0,0,8.225,3.321C5.962,6.03,6.069,7.03,6.069,11.274c-.039.621-.243.291-.592.835-.573.884-.117,2.525.223,3.4,1.01,2.534,1.767,1.593,2.534,2.971,1.952.078,1.156-.165,2.418.767.67.486,1.369.728,1.767,1.34A12.913,12.913,0,0,1,9,23.461C5.127,24.985,1.748,26.218.534,30.336A18,18,0,0,1,0,32.831Zm14.43-9.108c-.136,1.962,1.126.573.476,2.8a19.445,19.445,0,0,0-.816,3.166c.621.33,1.33,1.136,1.962,1.427.5-.262,1.942-1.272,1.9-1.777-.029-.456-.67-2.369-.845-2.971-.223-.767-.388-.8.087-1.321.961-1.039.515-1.738-1.272-1.748C14.925,23.3,15.11,23.276,14.43,23.723ZM7.351,10.429c.563-.816.544-2.865,2.729-5.38a6.9,6.9,0,0,1,5.855-2.408c2.4,0,4.059.2,5.846,2.3,2.525,2.962,2.311,4.729,2.855,5.38.1-3.078-.631-5.108-2.224-6.623C19.033.466,12.837.486,9.565,3.807,7.768,5.613,7.089,6.885,7.351,10.429ZM7.516,27.52c2.758-.049,2.224-.486,4.807,1.952a41.287,41.287,0,0,0,3.729,3.156l5.457-4.748c.7-.631,1.806-.369,3.03-.359-.612-2.127-2.408-3.612-3.593-4.719-.583-.553-.932-.913-1.466-1.369-1.33.524-1.544.922-3.428.845A5.4,5.4,0,0,1,12.993,21.1L9.876,23.839A13.726,13.726,0,0,0,7.516,27.52ZM13.847,19.6a1.7,1.7,0,0,1,1.593-.748c.748-.01,1.457.087,1.612.787.447,1.923-2.146,1.272-3.272,1.156.66,1.117,3.069,1.194,4.3.728a7.6,7.6,0,0,0,2.942-2.583c1.078-1.243,1.466-1.991,1.253-4.224a4.171,4.171,0,0,0-2.233-3.35c.379.816,1.068,1.088,1.078,2.282l-1.942-1.816c-1.515-1.418-3.535-1.845-4.933-4.4A6.323,6.323,0,0,0,13.6,6.147c-1.67,1.224-3.127,4.418-3.311,6.836a13.652,13.652,0,0,0,.486,4.506C11.08,18.479,12.6,19.363,13.847,19.6Z" fill="#8b2e5d" fill-rule="evenodd"/>
</svg>
