<svg xmlns="http://www.w3.org/2000/svg" width="30.514" height="20.598" viewBox="0 0 30.514 20.598">
  <path id="Icon_zocial-email" data-name="Icon zocial-email" d="M.072,22.841V5.892q0-.029.088-.559l9.975,8.533L.19,23.43a2.494,2.494,0,0,1-.118-.589ZM1.4,4.156a1.268,1.268,0,0,1,.5-.088H28.762a1.666,1.666,0,0,1,.53.088l-10,8.563-1.324,1.059-2.619,2.148-2.619-2.148L11.4,12.719Zm.029,20.421L11.46,14.955,15.344,18.1l3.884-3.149,10.034,9.622a1.413,1.413,0,0,1-.5.088H1.9a1.333,1.333,0,0,1-.471-.088ZM20.552,13.867,30.5,5.333a1.756,1.756,0,0,1,.088.559V22.841a2.255,2.255,0,0,1-.088.589Z" transform="translate(-0.072 -4.068)" fill="#8b2e5d"/>
</svg>
