<svg id="_576133216" xmlns="http://www.w3.org/2000/svg" width="36.272" height="22.998" viewBox="0 0 36.272 22.998">
  <path id="Path_335" data-name="Path 335" d="M2589.011,1549.156l.016.081a1.173,1.173,0,0,0-.027.736,1.694,1.694,0,0,0,.295.679c.613.81,1.311.543,1.218.819-.068.2-.074.049-.072.492a1.753,1.753,0,0,0,.539,1.288,1.9,1.9,0,0,0,.728.365,1.5,1.5,0,0,0,.634.055,1.857,1.857,0,0,0,.768-.327,2.221,2.221,0,0,1,.216-.128c.039.068.052.214.094.321a2.193,2.193,0,0,0,.31.516,1.265,1.265,0,0,0,.233.208,1.751,1.751,0,0,0,1.337.339c.123-.015.182-.106.346-.057a1.917,1.917,0,0,0,1,.27,1.852,1.852,0,0,0,1.106-.475l.062-.061c-.106-.244-1.061-.976-1.112-1.175a3.736,3.736,0,0,1-.009-.382c-.017-.159-.085-.112-.057-.3l.131.129c.246.257.679.715.918.906l1.042,1.027c.38.373.206.212.647.375a2.262,2.262,0,0,0,1.356-.146l.348-.189a3.7,3.7,0,0,0,.787-.768c.025-.106-.14-.231-.2-.289l-3.133-3.123c-.093-.093-.516-.4-.236-.626.246-.131.549.289.7.435l1.192,1.19c.244.246.49.513.751.736l1.329,1.324a5.384,5.384,0,0,0,.593.6c.17.119.259.078.486.123a1.814,1.814,0,0,0,.978-.127l.287-.153c.4-.229.518-.5.832-.8a.532.532,0,0,0,.14-.178c.079-.115.2-.187.246-.335.13-.371.079-.378-.18-.594-.117-.1-.165-.2-.28-.3-.068-.059-.1-.076-.17-.146-.1-.1-.189-.191-.293-.293a1.294,1.294,0,0,1-.134-.157c-.053-.064-.1-.08-.17-.146l-1.777-1.778c-.193-.193-.39-.4-.6-.6-.39-.378-.049-.675.21-.429l1.791,1.763c.109.115.182.191.289.295.186.189.443.395.6.592.174.217.794.793,1.036,1.031.324.316,1.263.07,1.693-.412.052-.059.085-.089.14-.151a2.2,2.2,0,0,0,.265-.346,1.973,1.973,0,0,0-.133-2.249l-.29-.318c-.14-.142-.533-.471-.569-.62.219-.274.581-.5.834-.768l.855-.776c.287-.286,1.061-.866,1.192-1.167.2-.448-.174-1-.375-1.381-.108-.2-.193-.42-.3-.624-.031-.062-.044-.083-.072-.146s-.038-.078-.081-.161c-.053-.1-.1-.193-.155-.308a1.168,1.168,0,0,0-.079-.14c-.031-.053-.051-.1-.083-.161-.134-.269-.244-.539-.385-.785l-.061-.11c-.011-.023-.011-.03-.021-.051-.032-.062-.015-.021-.037-.062a.094.094,0,0,0-.008-.017l-.5-1.008c-.027-.055-.049-.1-.081-.166-.254-.5-.556-1.05-.778-1.555-.028-.062-.043-.089-.074-.149-.214-.4-.414-1.061-.8-1.294-.183-.112-2.01-.706-2.41-.874l-1.042-.377a6.433,6.433,0,0,0-1.436-.429,4.884,4.884,0,0,0-2.244.558c-.448.14-.91.361-1.358.515l-.687.263a5.692,5.692,0,0,0-.87.394c-.062.04.032.024-.079.038a6.958,6.958,0,0,1-.8-.337,1.9,1.9,0,0,1-.187-.057,4.209,4.209,0,0,0-1.173-.244c-.142-.011-.229-.051-.394-.057a5.43,5.43,0,0,0-.9.047c-.144.019-.29,0-.441.017s-.274.053-.411.062-.3,0-.443.015-.257.047-.427.059c-.263.019-.5,0-.689.238l-3.861,5.482c-.191.24-.8,1.19-.959,1.379-.515.621.165,1.141.526,1.5l1.409,1.389c.078.087.189.127.167.261l-.125.363a1.845,1.845,0,0,0,.147,1.184,1.761,1.761,0,0,0,1.041.838C2588.718,1549.088,2588.911,1549.131,2589.011,1549.156Zm5.906,2.822a.812.812,0,0,0-.645.314.63.63,0,0,0-.106.138,1.017,1.017,0,0,0-.019.938.956.956,0,0,0,1.663.047,1.347,1.347,0,0,0,.087-.155A.951.951,0,0,0,2594.917,1551.978Zm-5.859-5.5a.986.986,0,0,0-.666.293.96.96,0,0,0,.325,1.559,1.872,1.872,0,0,0,.405.07.982.982,0,0,0,.844-.592.766.766,0,0,0,.059-.424.937.937,0,0,0-.585-.844A1.518,1.518,0,0,0,2589.058,1546.481Zm2.03,1.536c-.346.089-.5.329-.744.562a2.349,2.349,0,0,0-.584.732.961.961,0,0,0,1.54,1.052l.711-.749a.938.938,0,0,0,.2-.314.787.787,0,0,0,.045-.537.921.921,0,0,0-.068-.248.95.95,0,0,0-.537-.46A1,1,0,0,0,2591.088,1548.017Zm1.969,1.778a.892.892,0,0,0-.484.31,18.139,18.139,0,0,0-1.313,1.436,1.613,1.613,0,0,0-.1.3,1.042,1.042,0,0,0,.142.647.972.972,0,0,0,1.356.286l1.347-1.4a.945.945,0,0,0-.047-1.343.91.91,0,0,0-.526-.246A1.827,1.827,0,0,0,2593.056,1549.795Zm4.791-10.9,1.128.055a.4.4,0,0,1,.333.269c.068.227-.112.4-.055.522.03.066,1.237,1.243,1.384,1.392l2.1,2.081c.076.078.148.17.233.255.166.159.331.307.469.456.087.093.155.149.233.229l1.631,1.629.231.231c.153.157.312.282.466.458.137.159.374.35.465.458.341.405.259.223.946-.386l.706-.635c.123-.119.219-.18.354-.3l1.044-.974-.98-1.962c-.028-.057-.051-.106-.089-.178l-.717-1.426c-.063-.123-.127-.246-.178-.356-.038-.085-.046-.093-.086-.178l-.177-.359c-.034-.068-.053-.123-.085-.185l-.9-1.8c-.335-.653-.208-.666-.772-.834l-.991-.35c-.714-.242-1.44-.528-2.159-.785l-.287-.1a2.669,2.669,0,0,0-1.02-.235,3.9,3.9,0,0,0-1.315.378l-1.869.713c-.221.083-.42.167-.615.238-.338.119-1.065.344-1.22.7-.036.085-.039.076-.072.151l-.8,1.773c-.178.337-.5,1.095-.675,1.468-.185.392-.342.794-.539,1.188l-.532,1.171c-.181.386-.335.615-.083.931a.691.691,0,0,0,.265.176,1.478,1.478,0,0,0,1.383-.1,4.627,4.627,0,0,0,.965-.762l.39-.46a7.3,7.3,0,0,0,1.021-1.973l.155-.5c.019-.074.01-.117.034-.189a5.348,5.348,0,0,0,.135-.715,1.088,1.088,0,0,0,.06-.374A5.688,5.688,0,0,1,2597.847,1538.9Z" transform="translate(-2579.781 -1531.913)" fill="#8b2e5d" fill-rule="evenodd"/>
  <path id="Path_336" data-name="Path 336" d="M12830.765,344.533l-1.806-3.6c-.025-.045-.058-.115-.081-.165-.259-.552-.577-1.124-.824-1.657l-1.231-2.467c-.359-.7-.969-2.007-1.324-2.639l-2.221,1.082a2.645,2.645,0,0,0-1.394,1.088,1.841,1.841,0,0,0-.107,1.373c.041.14.331.658.409.838l.2.405.03.066a.808.808,0,0,1,.044.076l1.384,2.8c.047.089.093.185.14.274l1.33,2.662s.008.011.008.015c.118.214.163.363.334.639a2.249,2.249,0,0,0,.4.452,1.594,1.594,0,0,0,.891.352,1.882,1.882,0,0,0,1.038-.174c.385-.174.94-.486,1.395-.7.351-.161.945-.5,1.254-.622C12830.721,344.6,12830.71,344.6,12830.765,344.533Zm-3.018-1.3a.676.676,0,0,0-.448.855.45.45,0,0,0,.116.206.632.632,0,0,0,.731.227.689.689,0,0,0,.424-.4.537.537,0,0,0,.009-.429A.657.657,0,0,0,12827.747,343.237Z" transform="translate(-12794.492 -333.291)" fill="#8b2e5d" fill-rule="evenodd"/>
  <path id="Path_337" data-name="Path 337" d="M0,9.682l2.047,1.434c.149.11.263.187.416.291a1.747,1.747,0,0,0,1.36.363.787.787,0,0,0,.269-.068,1.756,1.756,0,0,0,.819-.541L6.878,8.38c.083-.112.214-.276.284-.395.03-.047.036-.064.066-.1L9.254,4.992a9.653,9.653,0,0,0,.683-1.025A1.779,1.779,0,0,0,9.71,2.141a.984.984,0,0,0-.161-.18l-.382-.3c-.07-.049-.127-.087-.2-.14s-.125-.076-.2-.136C8.647,1.3,8.48,1.2,8.354,1.112l-.8-.569A5.648,5.648,0,0,0,6.736,0c-.03.04-.057.1-.091.14L4.85,2.7c-.034.051-.059.083-.1.14L4.213,3.6c-.142.219-.28.407-.422.6l-.21.3a1.41,1.41,0,0,0-.106.161c-.011.017-.034.045-.053.068l-.161.229a1.742,1.742,0,0,0-.108.159c-.286.4-.577.779-.846,1.2L1.027,8.129a1.134,1.134,0,0,1-.091.151l-.426.6C.392,9.067.011,9.5,0,9.682Zm2.177-.291a.654.654,0,0,0,.39.619A.7.7,0,0,0,3.329,9.9a.689.689,0,0,0-.176-1.1.639.639,0,0,0-.768.132A.825.825,0,0,0,2.177,9.392Z" fill="#8b2e5d" fill-rule="evenodd"/>
</svg>
