<svg xmlns="http://www.w3.org/2000/svg" width="19.963" height="31.94" viewBox="0 0 19.963 31.94">
  <path id="Icon_metro-location" data-name="Icon metro-location" d="M18.336,1.928a9.981,9.981,0,0,0-9.981,9.981c0,9.981,9.981,21.959,9.981,21.959s9.981-11.978,9.981-21.959a9.981,9.981,0,0,0-9.981-9.981Zm0,16.095a6.114,6.114,0,1,1,6.114-6.114A6.114,6.114,0,0,1,18.336,18.023Zm-3.868-6.114a3.868,3.868,0,1,1,3.868,3.868A3.868,3.868,0,0,1,14.468,11.909Z" transform="translate(-8.355 -1.928)" fill="#8b2e5d"/>
</svg>
