<svg xmlns="http://www.w3.org/2000/svg" width="37.037" height="36.507" viewBox="0 0 37.037 36.507">
  <path id="Icon_awesome-pinterest-square" data-name="Icon awesome-pinterest-square" d="M37.037,6.161V34.846a3.941,3.941,0,0,1-3.968,3.911h-20.3a20.742,20.742,0,0,0,2.265-4.832c.248-.937,1.265-4.759,1.265-4.759a5.451,5.451,0,0,0,4.654,2.3c6.126,0,10.532-5.549,10.532-12.443,0-6.609-5.473-11.555-12.517-11.555-8.763,0-13.409,5.794-13.409,12.109,0,2.934,1.587,6.584,4.117,7.75.389.179.587.1.678-.269.066-.277.413-1.638.562-2.265a.584.584,0,0,0-.141-.57,7.727,7.727,0,0,1-1.513-4.563,8.727,8.727,0,0,1,9.168-8.687c4.985,0,8.482,3.349,8.482,8.141,0,5.411-2.77,9.159-6.382,9.159a2.923,2.923,0,0,1-3.009-3.618c.57-2.379,1.678-4.946,1.678-6.666,0-4.319-6.242-3.724-6.242,2.037a7.225,7.225,0,0,0,.6,2.974c-2.6,10.822-2.984,10.96-2.447,15.695l.182.065H3.968A3.941,3.941,0,0,1,0,34.846V6.161A3.941,3.941,0,0,1,3.968,2.25h29.1A3.941,3.941,0,0,1,37.037,6.161Z" transform="translate(0 -2.25)" fill="#e62121"/>
</svg>
