<svg xmlns="http://www.w3.org/2000/svg" width="36.471" height="36.507" viewBox="0 0 36.471 36.507">
  <path id="Icon_awesome-google-plus-square" data-name="Icon awesome-google-plus-square" d="M32.564,2.25H3.908A3.911,3.911,0,0,0,0,6.161V34.846a3.911,3.911,0,0,0,3.908,3.911H32.564a3.911,3.911,0,0,0,3.908-3.911V6.161A3.911,3.911,0,0,0,32.564,2.25Zm-19.213,26.4a8.149,8.149,0,0,1,0-16.3,7.772,7.772,0,0,1,5.454,2.135L16.6,16.617a4.565,4.565,0,0,0-3.24-1.255,5.151,5.151,0,0,0,0,10.3,4.418,4.418,0,0,0,4.624-3.512H13.351v-2.8h7.685a6.629,6.629,0,0,1,.13,1.353C21.166,25.352,18.048,28.652,13.351,28.652Zm17.91-6.666H28.9V24.35H26.523V21.987H24.162V19.607h2.361V17.244H28.9v2.363h2.361Z" transform="translate(0 -2.25)" fill="#c20e0e"/>
</svg>
