<svg xmlns="http://www.w3.org/2000/svg" width="37.037" height="36.507" viewBox="0 0 37.037 36.507">
  <path id="Icon_simple-linkedin" data-name="Icon simple-linkedin" d="M31.554,31.11H26.07V22.639c0-2.02-.042-4.62-2.858-4.62-2.86,0-3.3,2.2-3.3,4.471v8.62H14.431V13.69H19.7v2.374h.071a5.8,5.8,0,0,1,5.2-2.814c5.557,0,6.585,3.605,6.585,8.3V31.11ZM8.236,11.307a3.14,3.14,0,1,1,3.185-3.141A3.159,3.159,0,0,1,8.236,11.307Zm2.75,19.8h-5.5V13.69h5.5ZM34.3,0H2.733A2.682,2.682,0,0,0,0,2.63V33.877a2.681,2.681,0,0,0,2.733,2.63h31.56a2.692,2.692,0,0,0,2.744-2.63V2.63A2.693,2.693,0,0,0,34.293,0Z" fill="#0a66c2"/>
</svg>
