<svg xmlns="http://www.w3.org/2000/svg" width="49.373" height="36.507" viewBox="0 0 49.373 36.507">
  <path id="Icon_ionic-logo-youtube" data-name="Icon ionic-logo-youtube" d="M49.052,12.562a7.434,7.434,0,0,0-7.137-7.719C36.572,4.6,31.123,4.5,25.558,4.5H23.822c-5.555,0-11.014.1-16.357.342C3.53,4.842.338,8.3.338,12.581.1,15.965-.009,19.349,0,22.734Q-.014,27.81.328,32.9c0,4.278,3.192,7.748,7.127,7.748,5.613.257,11.371.371,17.225.361q8.8.029,17.225-.361c3.945,0,7.137-3.47,7.137-7.748.231-3.394.338-6.778.328-10.172Q49.4,17.648,49.052,12.562Zm-29.088,19.5V13.379l13.985,9.335Z" transform="translate(0 -4.5)" fill="#d51515"/>
</svg>
