<svg xmlns="http://www.w3.org/2000/svg" width="36" height="30" viewBox="0 0 36 30">
  <path id="Icon_awesome-wallet" data-name="Icon awesome-wallet" d="M32.428,8.679H5.625a1.073,1.073,0,1,1,0-2.143h27A1.1,1.1,0,0,0,33.75,5.464,3.3,3.3,0,0,0,30.375,2.25H4.5A4.4,4.4,0,0,0,0,6.536V27.964A4.4,4.4,0,0,0,4.5,32.25H32.428A3.411,3.411,0,0,0,36,29.036V11.893A3.411,3.411,0,0,0,32.428,8.679ZM29.25,22.607a2.145,2.145,0,1,1,2.25-2.143A2.2,2.2,0,0,1,29.25,22.607Z" transform="translate(0 -2.25)" fill="#8b2e5d"/>
</svg>
